ISO-10303-21;
HEADER;
FILE_DESCRIPTION (( 'STEP AP214' ),
    '1' );
FILE_NAME ('1.STEP',
    '2026-08-26T01:20:44',
    ( '' ),
    ( '' ),
    'SwSTEP 2.0',
    'SolidWorks 2025',
    '' );
FILE_SCHEMA (( 'AUTOMOTIVE_DESIGN' ));
ENDSEC;

DATA;
#1 = VERTEX_POINT ( 'NONE', #515 ) ;
#2 = DIRECTION ( 'NONE',  ( -0.000000000000000000, -0.000000000000000000, -1.000000000000000000 ) ) ;
#3 = EDGE_LOOP ( 'NONE', ( #408, #455, #392, #389 ) ) ;
#4 = AXIS2_PLACEMENT_3D ( 'NONE', #357, #522, #34 ) ;
#5 = AXIS2_PLACEMENT_3D ( 'NONE', #378, #46, #303 ) ;
#6 = EDGE_LOOP ( 'NONE', ( #250, #375, #261, #138 ) ) ;
#7 = DIRECTION ( 'NONE',  ( 1.000000000000000000, 0.000000000000000000, 0.000000000000000000 ) ) ;
#8 = EDGE_CURVE ( 'NONE', #415, #62, #193, .T. ) ;
#9 = ORIENTED_EDGE ( 'NONE', *, *, #281, .F. ) ;
#10 = CARTESIAN_POINT ( 'NONE',  ( 60.00000000000000000, 10.00000000000000000, 0.000000000000000000 ) ) ;
#11 = ORIENTED_EDGE ( 'NONE', *, *, #370, .T. ) ;
#12 = DIRECTION ( 'NONE',  ( -1.000000000000000000, 0.000000000000000000, 0.000000000000000000 ) ) ;
#13 = AXIS2_PLACEMENT_3D ( 'NONE', #49, #419, #381 ) ;
#14 = ORIENTED_EDGE ( 'NONE', *, *, #370, .F. ) ;
#15 = EDGE_CURVE ( 'NONE', #428, #206, #189, .T. ) ;
#16 = DIRECTION ( 'NONE',  ( 0.000000000000000000, 0.000000000000000000, -1.000000000000000000 ) ) ;
#17 = ORIENTED_EDGE ( 'NONE', *, *, #511, .F. ) ;
#18 = LINE ( 'NONE', #65, #120 ) ;
#19 = EDGE_LOOP ( 'NONE', ( #341, #128, #240, #86 ) ) ;
#20 = PLANE ( 'NONE',  #350 ) ;
#21 = VECTOR ( 'NONE', #491, 1000.000000000000000 ) ;
#22 = AXIS2_PLACEMENT_3D ( 'NONE', #111, #192, #403 ) ;
#23 = EDGE_CURVE ( 'NONE', #83, #97, #278, .T. ) ;
#24 = ORIENTED_EDGE ( 'NONE', *, *, #459, .T. ) ;
#25 = DIRECTION ( 'NONE',  ( 0.000000000000000000, 0.000000000000000000, -1.000000000000000000 ) ) ;
#26 = ORIENTED_EDGE ( 'NONE', *, *, #313, .F. ) ;
#27 = EDGE_CURVE ( 'NONE', #62, #302, #529, .T. ) ;
#28 = FACE_OUTER_BOUND ( 'NONE', #99, .T. ) ;
#29 = FACE_OUTER_BOUND ( 'NONE', #126, .T. ) ;
#30 = DIRECTION ( 'NONE',  ( 0.000000000000000000, 1.000000000000000000, 0.000000000000000000 ) ) ;
#31 = AXIS2_PLACEMENT_3D ( 'NONE', #493, #127, #510 ) ;
#32 = DIRECTION ( 'NONE',  ( 0.000000000000000000, 0.000000000000000000, -1.000000000000000000 ) ) ;
#33 = CARTESIAN_POINT ( 'NONE',  ( 31.60513234961999984, 16.65000000000000213, 0.000000000000000000 ) ) ;
#34 = DIRECTION ( 'NONE',  ( 1.000000000000000000, 0.000000000000000000, 0.000000000000000000 ) ) ;
#35 = CARTESIAN_POINT ( 'NONE',  ( 31.60513234961999984, 13.35000000000000142, -3.000000000000000000 ) ) ;
#36 = DIRECTION ( 'NONE',  ( -0.000000000000000000, -0.000000000000000000, -1.000000000000000000 ) ) ;
#37 = PLANE ( 'NONE',  #200 ) ;
#38 = MANIFOLD_SOLID_BREP ( '\X2\52079664\X0\-\X2\62c94f38\X0\2', #505 ) ;
#39 = PRESENTATION_STYLE_ASSIGNMENT (( #156 ) ) ;
#40 = AXIS2_PLACEMENT_3D ( 'NONE', #501, #16, #460 ) ;
#41 = LINE ( 'NONE', #328, #342 ) ;
#42 = ORIENTED_EDGE ( 'NONE', *, *, #464, .T. ) ;
#43 = EDGE_CURVE ( 'NONE', #465, #302, #110, .T. ) ;
#44 = CARTESIAN_POINT ( 'NONE',  ( 3.000000000000003553, 0.000000000000000000, 9.000000000000001776 ) ) ;
#45 = ORIENTED_EDGE ( 'NONE', *, *, #532, .T. ) ;
#46 = DIRECTION ( 'NONE',  ( 0.000000000000000000, 0.000000000000000000, 1.000000000000000000 ) ) ;
#47 = VERTEX_POINT ( 'NONE', #361 ) ;
#48 = AXIS2_PLACEMENT_3D ( 'NONE', #150, #429, #516 ) ;
#49 = CARTESIAN_POINT ( 'NONE',  ( 0.000000000000000000, 0.000000000000000000, 3.000000000000000000 ) ) ;
#50 = ORIENTED_EDGE ( 'NONE', *, *, #27, .T. ) ;
#51 = CARTESIAN_POINT ( 'NONE',  ( 5.141029654339317467, 16.65000000000000213, -3.000000000000000000 ) ) ;
#52 = EDGE_LOOP ( 'NONE', ( #268, #462 ) ) ;
#53 = DIRECTION ( 'NONE',  ( -0.000000000000000000, 0.000000000000000000, 1.000000000000000000 ) ) ;
#54 = ORIENTED_EDGE ( 'NONE', *, *, #130, .F. ) ;
#55 = EDGE_CURVE ( 'NONE', #331, #453, #106, .T. ) ;
#56 = PLANE ( 'NONE',  #105 ) ;
#57 = AXIS2_PLACEMENT_3D ( 'NONE', #116, #445, #77 ) ;
#58 = ORIENTED_EDGE ( 'NONE', *, *, #532, .F. ) ;
#59 = CARTESIAN_POINT ( 'NONE',  ( 47.00000000000000000, 15.00000000000000000, 3.000000000000000000 ) ) ;
#60 = EDGE_LOOP ( 'NONE', ( #231, #175 ) ) ;
#61 = LINE ( 'NONE', #226, #498 ) ;
#62 = VERTEX_POINT ( 'NONE', #444 ) ;
#63 = LINE ( 'NONE', #79, #451 ) ;
#64 = ORIENTED_EDGE ( 'NONE', *, *, #488, .T. ) ;
#65 = CARTESIAN_POINT ( 'NONE',  ( 5.141029654339317467, 0.000000000000000000, -0.000000000000000000 ) ) ;
#66 = CYLINDRICAL_SURFACE ( 'NONE', #263, 10.50000000000000178 ) ;
#67 = LINE ( 'NONE', #481, #358 ) ;
#68 = FILL_AREA_STYLE ('',( #483 ) ) ;
#69 = ADVANCED_FACE ( 'NONE', ( #436 ), #66, .F. ) ;
#70 = CARTESIAN_POINT ( 'NONE',  ( 49.99999999999999289, 30.00000000000000000, 0.000000000000000000 ) ) ;
#71 = UNCERTAINTY_MEASURE_WITH_UNIT (LENGTH_MEASURE( 1.000000000000000082E-05 ), #326, 'distance_accuracy_value', 'NONE');
#72 = VECTOR ( 'NONE', #221, 1000.000000000000000 ) ;
#73 = LINE ( 'NONE', #237, #390 ) ;
#74 = DIRECTION ( 'NONE',  ( -1.000000000000000000, 0.000000000000000000, 0.000000000000000000 ) ) ;
#75 = LINE ( 'NONE', #397, #398 ) ;
#76 = ORIENTED_EDGE ( 'NONE', *, *, #177, .T. ) ;
#77 = DIRECTION ( 'NONE',  ( 0.000000000000000000, 0.000000000000000000, 1.000000000000000000 ) ) ;
#78 = EDGE_CURVE ( 'NONE', #331, #327, #75, .T. ) ;
#79 = CARTESIAN_POINT ( 'NONE',  ( 0.000000000000000000, 30.00000000000000000, 0.000000000000000000 ) ) ;
#80 = EDGE_CURVE ( 'NONE', #432, #428, #239, .T. ) ;
#81 = ORIENTED_EDGE ( 'NONE', *, *, #27, .F. ) ;
#82 = CARTESIAN_POINT ( 'NONE',  ( 36.50000000000000000, 15.00000000000000178, 0.000000000000000000 ) ) ;
#83 = VERTEX_POINT ( 'NONE', #363 ) ;
#84 = ORIENTED_EDGE ( 'NONE', *, *, #124, .F. ) ;
#85 = CARTESIAN_POINT ( 'NONE',  ( 3.000000000000001776, 0.000000000000000000, 3.000000000000000000 ) ) ;
#86 = ORIENTED_EDGE ( 'NONE', *, *, #511, .T. ) ;
#87 = PRESENTATION_LAYER_ASSIGNMENT (  '', '', ( #272 ) ) ;
#88 = DIRECTION ( 'NONE',  ( -0.000000000000000000, -0.000000000000000000, 1.000000000000000000 ) ) ;
#89 = ORIENTED_EDGE ( 'NONE', *, *, #55, .T. ) ;
#90 = CARTESIAN_POINT ( 'NONE',  ( 60.00000000000000000, 19.99999999999999645, 0.000000000000000000 ) ) ;
#91 = VERTEX_POINT ( 'NONE', #323 ) ;
#92 = CARTESIAN_POINT ( 'NONE',  ( 31.60513234961999984, 13.35000000000000142, 3.000000000000000000 ) ) ;
#93 = ORIENTED_EDGE ( 'NONE', *, *, #435, .T. ) ;
#94 = AXIS2_PLACEMENT_3D ( 'NONE', #438, #213, #12 ) ;
#95 = FACE_OUTER_BOUND ( 'NONE', #19, .T. ) ;
#96 =( GEOMETRIC_REPRESENTATION_CONTEXT ( 3 ) GLOBAL_UNCERTAINTY_ASSIGNED_CONTEXT ( ( #112 ) ) GLOBAL_UNIT_ASSIGNED_CONTEXT ( ( #411, #456, #257 ) ) REPRESENTATION_CONTEXT ( 'NONE', 'WORKASPACE' ) );
#97 = VERTEX_POINT ( 'NONE', #394 ) ;
#98 = CARTESIAN_POINT ( 'NONE',  ( 5.141029654339317467, 16.65000000000000213, 3.000000000000000000 ) ) ;
#99 = EDGE_LOOP ( 'NONE', ( #173, #215, #374, #9, #169, #382 ) ) ;
#100 = ADVANCED_FACE ( 'NONE', ( #29 ), #402, .T. ) ;
#101 = DIRECTION ( 'NONE',  ( 0.000000000000000000, 0.000000000000000000, -1.000000000000000000 ) ) ;
#102 = ADVANCED_BREP_SHAPE_REPRESENTATION ( '1', ( #38, #5 ), #96 ) ;
#103 = ORIENTED_EDGE ( 'NONE', *, *, #477, .F. ) ;
#104 = DIRECTION ( 'NONE',  ( -0.000000000000000000, -0.000000000000000000, 1.000000000000000000 ) ) ;
#105 = AXIS2_PLACEMENT_3D ( 'NONE', #288, #457, #258 ) ;
#106 = LINE ( 'NONE', #284, #479 ) ;
#107 = DIRECTION ( 'NONE',  ( -1.156482317317871478E-16, 1.000000000000000000, -0.000000000000000000 ) ) ;
#108 = EDGE_CURVE ( 'NONE', #387, #410, #149, .T. ) ;
#109 = LINE ( 'NONE', #360, #292 ) ;
#110 = LINE ( 'NONE', #144, #469 ) ;
#111 = CARTESIAN_POINT ( 'NONE',  ( 47.00000000000000000, 15.00000000000000000, 3.000000000000000000 ) ) ;
#112 = UNCERTAINTY_MEASURE_WITH_UNIT (LENGTH_MEASURE( 1.000000000000000082E-05 ), #411, 'distance_accuracy_value', 'NONE');
#113 = CARTESIAN_POINT ( 'NONE',  ( 3.000000000000000000, 30.00000000000000000, 9.000000000000001776 ) ) ;
#114 = AXIS2_PLACEMENT_3D ( 'NONE', #162, #528, #442 ) ;
#115 = EDGE_CURVE ( 'NONE', #500, #458, #73, .T. ) ;
#116 = CARTESIAN_POINT ( 'NONE',  ( 60.00000000000000000, 0.000000000000000000, 3.000000000000000000 ) ) ;
#117 = ADVANCED_FACE ( 'NONE', ( #265 ), #168, .T. ) ;
#118 = CARTESIAN_POINT ( 'NONE',  ( 49.99999999999999289, 10.00000000000000000, 3.000000000000000000 ) ) ;
#119 = CARTESIAN_POINT ( 'NONE',  ( 0.000000000000000000, 30.00000000000000000, 0.000000000000000000 ) ) ;
#120 = VECTOR ( 'NONE', #30, 1000.000000000000000 ) ;
#121 = VERTEX_POINT ( 'NONE', #379 ) ;
#122 = VECTOR ( 'NONE', #526, 1000.000000000000000 ) ;
#123 = DIRECTION ( 'NONE',  ( 0.000000000000000000, -1.000000000000000000, 0.000000000000000000 ) ) ;
#124 = EDGE_CURVE ( 'NONE', #83, #331, #306, .T. ) ;
#125 = ORIENTED_EDGE ( 'NONE', *, *, #80, .T. ) ;
#126 = EDGE_LOOP ( 'NONE', ( #209, #24, #132, #297 ) ) ;
#127 = DIRECTION ( 'NONE',  ( 0.000000000000000000, 0.000000000000000000, -1.000000000000000000 ) ) ;
#128 = ORIENTED_EDGE ( 'NONE', *, *, #23, .F. ) ;
#129 = COLOUR_RGB ( '',0.7921568627450980005, 0.8196078431372548767, 0.9333333333333333481 ) ;
#130 = EDGE_CURVE ( 'NONE', #410, #163, #260, .T. ) ;
#131 = LINE ( 'NONE', #218, #308 ) ;
#132 = ORIENTED_EDGE ( 'NONE', *, *, #383, .T. ) ;
#133 = DIRECTION ( 'NONE',  ( 0.000000000000000000, 1.000000000000000000, 0.000000000000000000 ) ) ;
#134 = EDGE_CURVE ( 'NONE', #91, #62, #131, .T. ) ;
#135 = ORIENTED_EDGE ( 'NONE', *, *, #8, .T. ) ;
#136 = PRODUCT_CONTEXT ( 'NONE', #185, 'mechanical' ) ;
#137 = CARTESIAN_POINT ( 'NONE',  ( 49.99999999999999289, 0.000000000000000000, 3.000000000000000000 ) ) ;
#138 = ORIENTED_EDGE ( 'NONE', *, *, #287, .F. ) ;
#139 = CARTESIAN_POINT ( 'NONE',  ( 3.000000000000000000, 30.00000000000000000, 3.000000000000000000 ) ) ;
#140 = EDGE_LOOP ( 'NONE', ( #228, #385, #58, #17, #495, #259 ) ) ;
#141 = FACE_BOUND ( 'NONE', #473, .T. ) ;
#142 = ORIENTED_EDGE ( 'NONE', *, *, #55, .F. ) ;
#143 = PLANE ( 'NONE',  #423 ) ;
#144 = CARTESIAN_POINT ( 'NONE',  ( 5.141029654339317467, 16.65000000000000213, -3.000000000000000000 ) ) ;
#145 = DIRECTION ( 'NONE',  ( 0.000000000000000000, 0.000000000000000000, -1.000000000000000000 ) ) ;
#146 = EDGE_CURVE ( 'NONE', #121, #500, #235, .T. ) ;
#147 = VECTOR ( 'NONE', #32, 1000.000000000000000 ) ;
#148 = PRODUCT_DEFINITION_FORMATION_WITH_SPECIFIED_SOURCE ( 'ไป', '', #197, .NOT_KNOWN. ) ;
#149 = LINE ( 'NONE', #485, #199 ) ;
#150 = CARTESIAN_POINT ( 'NONE',  ( 0.000000000000000000, 30.00000000000000000, 3.000000000000000000 ) ) ;
#151 = SURFACE_SIDE_STYLE ('',( #280 ) ) ;
#152 = LINE ( 'NONE', #322, #207 ) ;
#153 = CARTESIAN_POINT ( 'NONE',  ( 31.60513234961999984, 16.65000000000000213, 3.000000000000000000 ) ) ;
#154 = CARTESIAN_POINT ( 'NONE',  ( 31.60513234961999984, 13.35000000000000142, -3.000000000000000000 ) ) ;
#155 = AXIS2_PLACEMENT_3D ( 'NONE', #346, #88, #7 ) ;
#156 = SURFACE_STYLE_USAGE ( .BOTH. , #151 ) ;
#157 = ORIENTED_EDGE ( 'NONE', *, *, #262, .T. ) ;
#158 = DIRECTION ( 'NONE',  ( 0.000000000000000000, 0.000000000000000000, -1.000000000000000000 ) ) ;
#159 = FACE_OUTER_BOUND ( 'NONE', #347, .T. ) ;
#160 = LINE ( 'NONE', #330, #506 ) ;
#161 = ORIENTED_EDGE ( 'NONE', *, *, #177, .F. ) ;
#162 = CARTESIAN_POINT ( 'NONE',  ( 47.00000000000000000, 15.00000000000000000, 0.000000000000000000 ) ) ;
#163 = VERTEX_POINT ( 'NONE', #137 ) ;
#164 = ORIENTED_EDGE ( 'NONE', *, *, #298, .F. ) ;
#165 = CARTESIAN_POINT ( 'NONE',  ( 49.99999999999999289, 0.000000000000000000, 3.000000000000000000 ) ) ;
#166 = ORIENTED_EDGE ( 'NONE', *, *, #334, .T. ) ;
#167 = ADVANCED_FACE ( 'NONE', ( #299 ), #174, .F. ) ;
#168 = CYLINDRICAL_SURFACE ( 'NONE', #40, 10.00000000000000178 ) ;
#169 = ORIENTED_EDGE ( 'NONE', *, *, #404, .F. ) ;
#170 = PRODUCT_DEFINITION ( 'ๆ', '', #148, #443 ) ;
#171 = VECTOR ( 'NONE', #427, 1000.000000000000000 ) ;
#172 = LINE ( 'NONE', #508, #316 ) ;
#173 = ORIENTED_EDGE ( 'NONE', *, *, #211, .F. ) ;
#174 = CYLINDRICAL_SURFACE ( 'NONE', #155, 10.50000000000000178 ) ;
#175 = ORIENTED_EDGE ( 'NONE', *, *, #187, .F. ) ;
#176 = DIRECTION ( 'NONE',  ( 0.000000000000000000, 0.000000000000000000, -1.000000000000000000 ) ) ;
#177 = EDGE_CURVE ( 'NONE', #163, #418, #461, .T. ) ;
#178 = ORIENTED_EDGE ( 'NONE', *, *, #15, .F. ) ;
#179 = CARTESIAN_POINT ( 'NONE',  ( 31.60513234961999984, 13.35000000000000142, 0.000000000000000000 ) ) ;
#180 = AXIS2_PLACEMENT_3D ( 'NONE', #317, #101, #431 ) ;
#181 = ORIENTED_EDGE ( 'NONE', *, *, #43, .F. ) ;
#182 = FACE_OUTER_BOUND ( 'NONE', #352, .T. ) ;
#183 = EDGE_LOOP ( 'NONE', ( #517, #103, #338, #89 ) ) ;
#184 = FACE_OUTER_BOUND ( 'NONE', #183, .T. ) ;
#185 = APPLICATION_CONTEXT ( 'automotive_design' ) ;
#186 = DIRECTION ( 'NONE',  ( 0.000000000000000000, -1.000000000000000000, 0.000000000000000000 ) ) ;
#187 = EDGE_CURVE ( 'NONE', #458, #1, #489, .T. ) ;
#188 = CARTESIAN_POINT ( 'NONE',  ( 0.000000000000000000, 0.000000000000000000, 9.000000000000001776 ) ) ;
#189 = CIRCLE ( 'NONE', #514, 10.00000000000000178 ) ;
#190 = VECTOR ( 'NONE', #238, 1000.000000000000000 ) ;
#191 = CARTESIAN_POINT ( 'NONE',  ( 49.99999999999999289, 30.00000000000000000, 3.000000000000000000 ) ) ;
#192 = DIRECTION ( 'NONE',  ( 0.000000000000000000, 0.000000000000000000, 1.000000000000000000 ) ) ;
#193 = LINE ( 'NONE', #487, #21 ) ;
#194 = LINE ( 'NONE', #406, #264 ) ;
#195 = ADVANCED_FACE ( 'NONE', ( #95 ), #369, .F. ) ;
#196 = DIRECTION ( 'NONE',  ( -1.000000000000000000, 0.000000000000000000, 0.000000000000000000 ) ) ;
#197 = PRODUCT ( '1', '1', '', ( #136 ) ) ;
#198 = CARTESIAN_POINT ( 'NONE',  ( 49.99999999999999289, 19.99999999999999645, 3.000000000000000000 ) ) ;
#199 = VECTOR ( 'NONE', #440, 1000.000000000000000 ) ;
#200 = AXIS2_PLACEMENT_3D ( 'NONE', #367, #530, #158 ) ;
#201 = LINE ( 'NONE', #401, #190 ) ;
#202 = ORIENTED_EDGE ( 'NONE', *, *, #287, .T. ) ;
#203 = PLANE ( 'NONE',  #57 ) ;
#204 = ORIENTED_EDGE ( 'NONE', *, *, #435, .F. ) ;
#205 = VECTOR ( 'NONE', #104, 1000.000000000000000 ) ;
#206 = VERTEX_POINT ( 'NONE', #90 ) ;
#207 = VECTOR ( 'NONE', #449, 1000.000000000000000 ) ;
#208 = FACE_OUTER_BOUND ( 'NONE', #6, .T. ) ;
#209 = ORIENTED_EDGE ( 'NONE', *, *, #78, .T. ) ;
#210 = DIRECTION ( 'NONE',  ( -1.000000000000000000, 0.000000000000000000, -0.000000000000000000 ) ) ;
#211 = EDGE_CURVE ( 'NONE', #247, #206, #422, .T. ) ;
#212 = ORIENTED_EDGE ( 'NONE', *, *, #270, .T. ) ;
#213 = DIRECTION ( 'NONE',  ( 0.000000000000000000, 0.000000000000000000, -1.000000000000000000 ) ) ;
#214 = APPLICATION_CONTEXT ( 'automotive_design' ) ;
#215 = ORIENTED_EDGE ( 'NONE', *, *, #255, .T. ) ;
#216 = AXIS2_PLACEMENT_3D ( 'NONE', #51, #210, #53 ) ;
#217 = CIRCLE ( 'NONE', #524, 10.00000000000000178 ) ;
#218 = CARTESIAN_POINT ( 'NONE',  ( 31.60513234961999984, 16.65000000000000213, 3.000000000000000000 ) ) ;
#219 = VERTEX_POINT ( 'NONE', #531 ) ;
#220 = ADVANCED_FACE ( 'NONE', ( #159 ), #56, .F. ) ;
#221 = DIRECTION ( 'NONE',  ( 1.000000000000000000, -0.000000000000000000, -0.000000000000000000 ) ) ;
#222 = ORIENTED_EDGE ( 'NONE', *, *, #211, .T. ) ;
#223 = DIRECTION ( 'NONE',  ( -1.000000000000000000, -0.000000000000000000, -0.000000000000000000 ) ) ;
#224 = VERTEX_POINT ( 'NONE', #85 ) ;
#225 = AXIS2_PLACEMENT_3D ( 'NONE', #396, #25, #351 ) ;
#226 = CARTESIAN_POINT ( 'NONE',  ( 0.000000000000000000, 30.00000000000000000, 3.000000000000000000 ) ) ;
#227 = ADVANCED_FACE ( 'NONE', ( #254 ), #413, .F. ) ;
#228 = ORIENTED_EDGE ( 'NONE', *, *, #108, .T. ) ;
#229 = DIRECTION ( 'NONE',  ( 1.000000000000000000, 0.000000000000000000, 0.000000000000000000 ) ) ;
#230 = DIRECTION ( 'NONE',  ( 1.000000000000000000, 0.000000000000000000, 0.000000000000000000 ) ) ;
#231 = ORIENTED_EDGE ( 'NONE', *, *, #452, .F. ) ;
#232 = CARTESIAN_POINT ( 'NONE',  ( 5.141029654339317467, 16.65000000000000213, 3.000000000000000000 ) ) ;
#233 = CARTESIAN_POINT ( 'NONE',  ( 47.00000000000000000, 15.00000000000000000, -3.000000000000000000 ) ) ;
#234 = DIRECTION ( 'NONE',  ( -0.000000000000000000, -0.000000000000000000, -1.000000000000000000 ) ) ;
#235 = CIRCLE ( 'NONE', #31, 10.50000000000000178 ) ;
#236 = VECTOR ( 'NONE', #2, 1000.000000000000000 ) ;
#237 = CARTESIAN_POINT ( 'NONE',  ( 36.50000000000000000, 15.00000000000000178, -3.000000000000000000 ) ) ;
#238 = DIRECTION ( 'NONE',  ( 1.000000000000000000, 0.000000000000000000, 0.000000000000000000 ) ) ;
#239 = LINE ( 'NONE', #191, #147 ) ;
#240 = ORIENTED_EDGE ( 'NONE', *, *, #383, .F. ) ;
#241 = FACE_OUTER_BOUND ( 'NONE', #499, .T. ) ;
#242 =( NAMED_UNIT ( * ) SI_UNIT ( $, .STERADIAN. ) SOLID_ANGLE_UNIT ( ) );
#243 = PRODUCT_DEFINITION_SHAPE ( 'NONE', 'NONE',  #170 ) ;
#244 = LINE ( 'NONE', #35, #122 ) ;
#245 = AXIS2_PLACEMENT_3D ( 'NONE', #59, #339, #463 ) ;
#246 = ADVANCED_FACE ( 'NONE', ( #208 ), #416, .F. ) ;
#247 = VERTEX_POINT ( 'NONE', #10 ) ;
#248 = LINE ( 'NONE', #324, #236 ) ;
#249 = EDGE_LOOP ( 'NONE', ( #512, #305, #178, #355 ) ) ;
#250 = ORIENTED_EDGE ( 'NONE', *, *, #313, .T. ) ;
#251 = DIRECTION ( 'NONE',  ( 1.156482317317871478E-16, -1.000000000000000000, 0.000000000000000000 ) ) ;
#252 = VECTOR ( 'NONE', #273, 1000.000000000000000 ) ;
#253 = ORIENTED_EDGE ( 'NONE', *, *, #134, .F. ) ;
#254 = FACE_OUTER_BOUND ( 'NONE', #140, .T. ) ;
#255 = EDGE_CURVE ( 'NONE', #247, #410, #407, .T. ) ;
#256 = ORIENTED_EDGE ( 'NONE', *, *, #471, .T. ) ;
#257 =( NAMED_UNIT ( * ) SI_UNIT ( $, .STERADIAN. ) SOLID_ANGLE_UNIT ( ) );
#258 = DIRECTION ( 'NONE',  ( 0.000000000000000000, -0.000000000000000000, 1.000000000000000000 ) ) ;
#259 = ORIENTED_EDGE ( 'NONE', *, *, #477, .T. ) ;
#260 = LINE ( 'NONE', #165, #450 ) ;
#261 = ORIENTED_EDGE ( 'NONE', *, *, #366, .T. ) ;
#262 = EDGE_CURVE ( 'NONE', #465, #415, #172, .T. ) ;
#263 = AXIS2_PLACEMENT_3D ( 'NONE', #233, #321, #230 ) ;
#264 = VECTOR ( 'NONE', #74, 1000.000000000000000 ) ;
#265 = FACE_OUTER_BOUND ( 'NONE', #249, .T. ) ;
#266 = ORIENTED_EDGE ( 'NONE', *, *, #255, .F. ) ;
#267 = LINE ( 'NONE', #139, #283 ) ;
#268 = ORIENTED_EDGE ( 'NONE', *, *, #146, .F. ) ;
#269 = DIRECTION ( 'NONE',  ( -1.000000000000000000, 0.000000000000000000, -0.000000000000000000 ) ) ;
#270 = EDGE_CURVE ( 'NONE', #312, #91, #466, .T. ) ;
#271 = ORIENTED_EDGE ( 'NONE', *, *, #8, .F. ) ;
#272 = STYLED_ITEM ( 'NONE', ( #39 ), #38 ) ;
#273 = DIRECTION ( 'NONE',  ( 0.000000000000000000, -1.000000000000000000, 0.000000000000000000 ) ) ;
#274 = VECTOR ( 'NONE', #234, 1000.000000000000000 ) ;
#275 = ADVANCED_FACE ( 'NONE', ( #354 ), #437, .T. ) ;
#276 = DIRECTION ( 'NONE',  ( -0.000000000000000000, -0.000000000000000000, -1.000000000000000000 ) ) ;
#277 = DIRECTION ( 'NONE',  ( -0.000000000000000000, -0.000000000000000000, 1.000000000000000000 ) ) ;
#278 = LINE ( 'NONE', #113, #325 ) ;
#279 = DIRECTION ( 'NONE',  ( -0.000000000000000000, -0.000000000000000000, 1.000000000000000000 ) ) ;
#280 = SURFACE_STYLE_FILL_AREA ( #68 ) ;
#281 = EDGE_CURVE ( 'NONE', #453, #387, #109, .T. ) ;
#282 = CARTESIAN_POINT ( 'NONE',  ( 0.000000000000000000, 0.000000000000000000, 3.000000000000000000 ) ) ;
#283 = VECTOR ( 'NONE', #386, 1000.000000000000000 ) ;
#284 = CARTESIAN_POINT ( 'NONE',  ( 0.000000000000000000, 30.00000000000000000, 3.000000000000000000 ) ) ;
#285 = CARTESIAN_POINT ( 'NONE',  ( 49.99999999999999289, 30.00000000000000000, 3.000000000000000000 ) ) ;
#286 = PLANE ( 'NONE',  #480 ) ;
#287 = EDGE_CURVE ( 'NONE', #219, #312, #67, .T. ) ;
#288 = CARTESIAN_POINT ( 'NONE',  ( 31.60513234961999984, 16.65000000000000213, -3.000000000000000000 ) ) ;
#289 = ORIENTED_EDGE ( 'NONE', *, *, #488, .F. ) ;
#290 = DIRECTION ( 'NONE',  ( -1.000000000000000000, 0.000000000000000000, 0.000000000000000000 ) ) ;
#291 = EDGE_CURVE ( 'NONE', #121, #1, #391, .T. ) ;
#292 = VECTOR ( 'NONE', #521, 1000.000000000000000 ) ;
#293 = VECTOR ( 'NONE', #373, 1000.000000000000000 ) ;
#294 = EDGE_LOOP ( 'NONE', ( #289, #42, #222, #166 ) ) ;
#295 = CARTESIAN_POINT ( 'NONE',  ( 60.00000000000000000, 10.00000000000000000, 3.000000000000000000 ) ) ;
#296 = EDGE_LOOP ( 'NONE', ( #430, #420, #310, #300 ) ) ;
#297 = ORIENTED_EDGE ( 'NONE', *, *, #124, .T. ) ;
#298 = EDGE_CURVE ( 'NONE', #224, #97, #267, .T. ) ;
#299 = FACE_OUTER_BOUND ( 'NONE', #296, .T. ) ;
#300 = ORIENTED_EDGE ( 'NONE', *, *, #291, .F. ) ;
#301 = DIRECTION ( 'NONE',  ( -1.000000000000000000, -1.156482317317871478E-16, 0.000000000000000000 ) ) ;
#302 = VERTEX_POINT ( 'NONE', #232 ) ;
#303 = DIRECTION ( 'NONE',  ( 1.000000000000000000, 0.000000000000000000, 0.000000000000000000 ) ) ;
#304 = DIRECTION ( 'NONE',  ( 1.000000000000000000, -0.000000000000000000, 0.000000000000000000 ) ) ;
#305 = ORIENTED_EDGE ( 'NONE', *, *, #334, .F. ) ;
#306 = LINE ( 'NONE', #384, #171 ) ;
#307 = ORIENTED_EDGE ( 'NONE', *, *, #366, .F. ) ;
#308 = VECTOR ( 'NONE', #329, 1000.000000000000000 ) ;
#309 = CARTESIAN_POINT ( 'NONE',  ( 57.50000000000000000, 15.00000000000000000, -3.000000000000000000 ) ) ;
#310 = ORIENTED_EDGE ( 'NONE', *, *, #187, .T. ) ;
#311 = FACE_BOUND ( 'NONE', #52, .T. ) ;
#312 = VERTEX_POINT ( 'NONE', #319 ) ;
#313 = EDGE_CURVE ( 'NONE', #219, #465, #18, .T. ) ;
#314 = CARTESIAN_POINT ( 'NONE',  ( 0.000000000000000000, 0.000000000000000000, 3.000000000000000000 ) ) ;
#315 = DIRECTION ( 'NONE',  ( -0.000000000000000000, -0.000000000000000000, 1.000000000000000000 ) ) ;
#316 = VECTOR ( 'NONE', #304, 1000.000000000000000 ) ;
#317 = CARTESIAN_POINT ( 'NONE',  ( 0.000000000000000000, 0.000000000000000000, 0.000000000000000000 ) ) ;
#318 = DIRECTION ( 'NONE',  ( -1.000000000000000000, 0.000000000000000000, 0.000000000000000000 ) ) ;
#319 = CARTESIAN_POINT ( 'NONE',  ( 5.141029654339317467, 13.35000000000000142, 3.000000000000000000 ) ) ;
#320 = ADVANCED_FACE ( 'NONE', ( #182 ), #519, .F. ) ;
#321 = DIRECTION ( 'NONE',  ( -0.000000000000000000, -0.000000000000000000, 1.000000000000000000 ) ) ;
#322 = CARTESIAN_POINT ( 'NONE',  ( 60.00000000000000000, 10.00000000000000000, 3.000000000000000000 ) ) ;
#323 = CARTESIAN_POINT ( 'NONE',  ( 31.60513234961999984, 13.35000000000000142, 3.000000000000000000 ) ) ;
#324 = CARTESIAN_POINT ( 'NONE',  ( 3.000000000000003553, 0.000000000000000000, 9.000000000000001776 ) ) ;
#325 = VECTOR ( 'NONE', #36, 1000.000000000000000 ) ;
#326 =( LENGTH_UNIT ( ) NAMED_UNIT ( * ) SI_UNIT ( .MILLI., .METRE. ) );
#327 = VERTEX_POINT ( 'NONE', #188 ) ;
#328 = CARTESIAN_POINT ( 'NONE',  ( 31.60513234961999984, 0.000000000000000000, 0.000000000000000000 ) ) ;
#329 = DIRECTION ( 'NONE',  ( -0.000000000000000000, 1.000000000000000000, -0.000000000000000000 ) ) ;
#330 = CARTESIAN_POINT ( 'NONE',  ( 0.000000000000000000, 0.000000000000000000, 3.000000000000000000 ) ) ;
#331 = VERTEX_POINT ( 'NONE', #472 ) ;
#332 = LINE ( 'NONE', #494, #293 ) ;
#333 = EDGE_LOOP ( 'NONE', ( #256, #202, #212, #204 ) ) ;
#334 = EDGE_CURVE ( 'NONE', #206, #47, #525, .T. ) ;
#335 = ORIENTED_EDGE ( 'NONE', *, *, #404, .T. ) ;
#336 = APPLICATION_PROTOCOL_DEFINITION ( 'draft international standard', 'automotive_design', 1998, #185 ) ;
#337 = CARTESIAN_POINT ( 'NONE',  ( 60.00000000000000000, 0.000000000000000000, 0.000000000000000000 ) ) ;
#338 = ORIENTED_EDGE ( 'NONE', *, *, #78, .F. ) ;
#339 = DIRECTION ( 'NONE',  ( 0.000000000000000000, 0.000000000000000000, 1.000000000000000000 ) ) ;
#340 = VECTOR ( 'NONE', #133, 1000.000000000000000 ) ;
#341 = ORIENTED_EDGE ( 'NONE', *, *, #298, .T. ) ;
#342 = VECTOR ( 'NONE', #123, 1000.000000000000000 ) ;
#343 = ADVANCED_FACE ( 'NONE', ( #184 ), #143, .F. ) ;
#344 = CARTESIAN_POINT ( 'NONE',  ( 3.000000000000000000, 30.00000000000000000, 9.000000000000001776 ) ) ;
#345 = ORIENTED_EDGE ( 'NONE', *, *, #134, .T. ) ;
#346 = CARTESIAN_POINT ( 'NONE',  ( 47.00000000000000000, 15.00000000000000000, -3.000000000000000000 ) ) ;
#347 = EDGE_LOOP ( 'NONE', ( #157, #135, #50, #181 ) ) ;
#348 = FACE_BOUND ( 'NONE', #60, .T. ) ;
#349 = EDGE_LOOP ( 'NONE', ( #161, #54, #266, #380 ) ) ;
#350 = AXIS2_PLACEMENT_3D ( 'NONE', #439, #145, #269 ) ;
#351 = DIRECTION ( 'NONE',  ( -1.000000000000000000, 0.000000000000000000, 0.000000000000000000 ) ) ;
#352 = EDGE_LOOP ( 'NONE', ( #14, #125, #335, #142, #84, #412 ) ) ;
#353 = ADVANCED_FACE ( 'NONE', ( #141, #348, #474 ), #20, .F. ) ;
#354 = FACE_OUTER_BOUND ( 'NONE', #349, .T. ) ;
#355 = ORIENTED_EDGE ( 'NONE', *, *, #80, .F. ) ;
#356 = PLANE ( 'NONE',  #180 ) ;
#357 = CARTESIAN_POINT ( 'NONE',  ( 0.000000000000000000, 0.000000000000000000, 9.000000000000001776 ) ) ;
#358 = VECTOR ( 'NONE', #277, 1000.000000000000000 ) ;
#359 = AXIS2_PLACEMENT_3D ( 'NONE', #118, #468, #376 ) ;
#360 = CARTESIAN_POINT ( 'NONE',  ( 0.000000000000000000, 0.000000000000000000, 0.000000000000000000 ) ) ;
#361 = CARTESIAN_POINT ( 'NONE',  ( 60.00000000000000000, 19.99999999999999645, 3.000000000000000000 ) ) ;
#362 = DIRECTION ( 'NONE',  ( -0.000000000000000000, -0.000000000000000000, 1.000000000000000000 ) ) ;
#363 = CARTESIAN_POINT ( 'NONE',  ( 3.000000000000000000, 30.00000000000000000, 9.000000000000001776 ) ) ;
#364 = LINE ( 'NONE', #282, #274 ) ;
#365 = CARTESIAN_POINT ( 'NONE',  ( 49.99999999999999289, 19.99999999999999645, 0.000000000000000000 ) ) ;
#366 = EDGE_CURVE ( 'NONE', #302, #312, #513, .T. ) ;
#367 = CARTESIAN_POINT ( 'NONE',  ( 31.60513234961999984, 16.65000000000000213, -3.000000000000000000 ) ) ;
#368 = MECHANICAL_DESIGN_GEOMETRIC_PRESENTATION_REPRESENTATION (  '', ( #272 ), #523 ) ;
#369 = PLANE ( 'NONE',  #441 ) ;
#370 = EDGE_CURVE ( 'NONE', #432, #97, #61, .T. ) ;
#371 = DIRECTION ( 'NONE',  ( 0.000000000000000000, -1.000000000000000000, -0.000000000000000000 ) ) ;
#372 = EDGE_LOOP ( 'NONE', ( #45, #76, #64, #425, #11, #164 ) ) ;
#373 = DIRECTION ( 'NONE',  ( 0.000000000000000000, 1.000000000000000000, 0.000000000000000000 ) ) ;
#374 = ORIENTED_EDGE ( 'NONE', *, *, #108, .F. ) ;
#375 = ORIENTED_EDGE ( 'NONE', *, *, #43, .T. ) ;
#376 = DIRECTION ( 'NONE',  ( -1.000000000000000000, 0.000000000000000000, 0.000000000000000000 ) ) ;
#377 = VERTEX_POINT ( 'NONE', #179 ) ;
#378 = CARTESIAN_POINT ( 'NONE',  ( 0.000000000000000000, 0.000000000000000000, 0.000000000000000000 ) ) ;
#379 = CARTESIAN_POINT ( 'NONE',  ( 57.50000000000000000, 15.00000000000000000, 0.000000000000000000 ) ) ;
#380 = ORIENTED_EDGE ( 'NONE', *, *, #464, .F. ) ;
#381 = DIRECTION ( 'NONE',  ( 0.000000000000000000, -0.000000000000000000, 1.000000000000000000 ) ) ;
#382 = ORIENTED_EDGE ( 'NONE', *, *, #15, .T. ) ;
#383 = EDGE_CURVE ( 'NONE', #502, #83, #388, .T. ) ;
#384 = CARTESIAN_POINT ( 'NONE',  ( 0.000000000000000000, 30.00000000000000000, 9.000000000000001776 ) ) ;
#385 = ORIENTED_EDGE ( 'NONE', *, *, #130, .T. ) ;
#386 = DIRECTION ( 'NONE',  ( -1.156482317317871478E-16, 1.000000000000000000, -0.000000000000000000 ) ) ;
#387 = VERTEX_POINT ( 'NONE', #434 ) ;
#388 = LINE ( 'NONE', #476, #433 ) ;
#389 = ORIENTED_EDGE ( 'NONE', *, *, #452, .T. ) ;
#390 = VECTOR ( 'NONE', #400, 1000.000000000000000 ) ;
#391 = LINE ( 'NONE', #309, #205 ) ;
#392 = ORIENTED_EDGE ( 'NONE', *, *, #291, .T. ) ;
#393 = FACE_BOUND ( 'NONE', #475, .T. ) ;
#394 = CARTESIAN_POINT ( 'NONE',  ( 3.000000000000000000, 30.00000000000000000, 3.000000000000000000 ) ) ;
#395 = ADVANCED_FACE ( 'NONE', ( #393, #311, #28 ), #356, .T. ) ;
#396 = CARTESIAN_POINT ( 'NONE',  ( 49.99999999999999289, 10.00000000000000000, 3.000000000000000000 ) ) ;
#397 = CARTESIAN_POINT ( 'NONE',  ( 0.000000000000000000, 30.00000000000000000, 9.000000000000001776 ) ) ;
#398 = VECTOR ( 'NONE', #186, 1000.000000000000000 ) ;
#399 = FACE_OUTER_BOUND ( 'NONE', #333, .T. ) ;
#400 = DIRECTION ( 'NONE',  ( -0.000000000000000000, -0.000000000000000000, 1.000000000000000000 ) ) ;
#401 = CARTESIAN_POINT ( 'NONE',  ( 0.000000000000000000, 0.000000000000000000, 9.000000000000001776 ) ) ;
#402 = PLANE ( 'NONE',  #4 ) ;
#403 = DIRECTION ( 'NONE',  ( 1.000000000000000000, 0.000000000000000000, 0.000000000000000000 ) ) ;
#404 = EDGE_CURVE ( 'NONE', #428, #453, #63, .T. ) ;
#405 = DIRECTION ( 'NONE',  ( 0.000000000000000000, 0.000000000000000000, -1.000000000000000000 ) ) ;
#406 = CARTESIAN_POINT ( 'NONE',  ( 0.000000000000000000, 13.35000000000000142, 0.000000000000000000 ) ) ;
#407 = CIRCLE ( 'NONE', #94, 10.00000000000000178 ) ;
#408 = ORIENTED_EDGE ( 'NONE', *, *, #115, .F. ) ;
#409 = FACE_OUTER_BOUND ( 'NONE', #294, .T. ) ;
#410 = VERTEX_POINT ( 'NONE', #447 ) ;
#411 =( LENGTH_UNIT ( ) NAMED_UNIT ( * ) SI_UNIT ( .MILLI., .METRE. ) );
#412 = ORIENTED_EDGE ( 'NONE', *, *, #23, .T. ) ;
#413 = PLANE ( 'NONE',  #13 ) ;
#414 = VECTOR ( 'NONE', #279, 1000.000000000000000 ) ;
#415 = VERTEX_POINT ( 'NONE', #33 ) ;
#416 = PLANE ( 'NONE',  #216 ) ;
#417 = EDGE_CURVE ( 'NONE', #415, #377, #41, .T. ) ;
#418 = VERTEX_POINT ( 'NONE', #295 ) ;
#419 = DIRECTION ( 'NONE',  ( 0.000000000000000000, 1.000000000000000000, 0.000000000000000000 ) ) ;
#420 = ORIENTED_EDGE ( 'NONE', *, *, #115, .T. ) ;
#421 = SHAPE_DEFINITION_REPRESENTATION ( #243, #102 ) ;
#422 = LINE ( 'NONE', #337, #340 ) ;
#423 = AXIS2_PLACEMENT_3D ( 'NONE', #314, #229, #176 ) ;
#424 = CIRCLE ( 'NONE', #114, 10.50000000000000178 ) ;
#425 = ORIENTED_EDGE ( 'NONE', *, *, #446, .T. ) ;
#426 = CIRCLE ( 'NONE', #22, 10.50000000000000178 ) ;
#427 = DIRECTION ( 'NONE',  ( -1.000000000000000000, -0.000000000000000000, -0.000000000000000000 ) ) ;
#428 = VERTEX_POINT ( 'NONE', #70 ) ;
#429 = DIRECTION ( 'NONE',  ( 0.000000000000000000, -1.000000000000000000, 0.000000000000000000 ) ) ;
#430 = ORIENTED_EDGE ( 'NONE', *, *, #146, .T. ) ;
#431 = DIRECTION ( 'NONE',  ( -1.000000000000000000, 0.000000000000000000, -0.000000000000000000 ) ) ;
#432 = VERTEX_POINT ( 'NONE', #285 ) ;
#433 = VECTOR ( 'NONE', #107, 1000.000000000000000 ) ;
#434 = CARTESIAN_POINT ( 'NONE',  ( 0.000000000000000000, 0.000000000000000000, 0.000000000000000000 ) ) ;
#435 = EDGE_CURVE ( 'NONE', #377, #91, #244, .T. ) ;
#436 = FACE_OUTER_BOUND ( 'NONE', #3, .T. ) ;
#437 = CYLINDRICAL_SURFACE ( 'NONE', #225, 10.00000000000000178 ) ;
#438 = CARTESIAN_POINT ( 'NONE',  ( 49.99999999999999289, 10.00000000000000000, 0.000000000000000000 ) ) ;
#439 = CARTESIAN_POINT ( 'NONE',  ( 0.000000000000000000, 0.000000000000000000, 3.000000000000000000 ) ) ;
#440 = DIRECTION ( 'NONE',  ( 1.000000000000000000, 0.000000000000000000, 0.000000000000000000 ) ) ;
#441 = AXIS2_PLACEMENT_3D ( 'NONE', #344, #301, #251 ) ;
#442 = DIRECTION ( 'NONE',  ( -1.000000000000000000, 0.000000000000000000, 0.000000000000000000 ) ) ;
#443 = PRODUCT_DEFINITION_CONTEXT ( 'detailed design', #214, 'design' ) ;
#444 = CARTESIAN_POINT ( 'NONE',  ( 31.60513234961999984, 16.65000000000000213, 3.000000000000000000 ) ) ;
#445 = DIRECTION ( 'NONE',  ( -1.000000000000000000, 0.000000000000000000, 0.000000000000000000 ) ) ;
#446 = EDGE_CURVE ( 'NONE', #47, #432, #217, .T. ) ;
#447 = CARTESIAN_POINT ( 'NONE',  ( 49.99999999999999289, 0.000000000000000000, 0.000000000000000000 ) ) ;
#448 = ORIENTED_EDGE ( 'NONE', *, *, #417, .T. ) ;
#449 = DIRECTION ( 'NONE',  ( 0.000000000000000000, 0.000000000000000000, -1.000000000000000000 ) ) ;
#450 = VECTOR ( 'NONE', #504, 1000.000000000000000 ) ;
#451 = VECTOR ( 'NONE', #497, 1000.000000000000000 ) ;
#452 = EDGE_CURVE ( 'NONE', #1, #458, #426, .T. ) ;
#453 = VERTEX_POINT ( 'NONE', #119 ) ;
#454 = APPLICATION_PROTOCOL_DEFINITION ( 'draft international standard', 'automotive_design', 1998, #214 ) ;
#455 = ORIENTED_EDGE ( 'NONE', *, *, #482, .T. ) ;
#456 =( NAMED_UNIT ( * ) PLANE_ANGLE_UNIT ( ) SI_UNIT ( $, .RADIAN. ) );
#457 = DIRECTION ( 'NONE',  ( 0.000000000000000000, 1.000000000000000000, 0.000000000000000000 ) ) ;
#458 = VERTEX_POINT ( 'NONE', #486 ) ;
#459 = EDGE_CURVE ( 'NONE', #327, #502, #201, .T. ) ;
#460 = DIRECTION ( 'NONE',  ( -1.000000000000000000, 0.000000000000000000, 0.000000000000000000 ) ) ;
#461 = CIRCLE ( 'NONE', #359, 10.00000000000000178 ) ;
#462 = ORIENTED_EDGE ( 'NONE', *, *, #482, .F. ) ;
#463 = DIRECTION ( 'NONE',  ( 1.000000000000000000, 0.000000000000000000, 0.000000000000000000 ) ) ;
#464 = EDGE_CURVE ( 'NONE', #418, #247, #152, .T. ) ;
#465 = VERTEX_POINT ( 'NONE', #490 ) ;
#466 = LINE ( 'NONE', #92, #72 ) ;
#467 = ORIENTED_EDGE ( 'NONE', *, *, #262, .F. ) ;
#468 = DIRECTION ( 'NONE',  ( -0.000000000000000000, -0.000000000000000000, 1.000000000000000000 ) ) ;
#469 = VECTOR ( 'NONE', #315, 1000.000000000000000 ) ;
#470 = ORIENTED_EDGE ( 'NONE', *, *, #471, .F. ) ;
#471 = EDGE_CURVE ( 'NONE', #377, #219, #194, .T. ) ;
#472 = CARTESIAN_POINT ( 'NONE',  ( 0.000000000000000000, 30.00000000000000000, 9.000000000000001776 ) ) ;
#473 = EDGE_LOOP ( 'NONE', ( #507, #307, #81, #253 ) ) ;
#474 = FACE_OUTER_BOUND ( 'NONE', #372, .T. ) ;
#475 = EDGE_LOOP ( 'NONE', ( #26, #470, #509, #467 ) ) ;
#476 = CARTESIAN_POINT ( 'NONE',  ( 3.000000000000000000, 30.00000000000000000, 9.000000000000001776 ) ) ;
#477 = EDGE_CURVE ( 'NONE', #327, #387, #364, .T. ) ;
#478 =( NAMED_UNIT ( * ) PLANE_ANGLE_UNIT ( ) SI_UNIT ( $, .RADIAN. ) );
#479 = VECTOR ( 'NONE', #276, 1000.000000000000000 ) ;
#480 = AXIS2_PLACEMENT_3D ( 'NONE', #154, #371, #533 ) ;
#481 = CARTESIAN_POINT ( 'NONE',  ( 5.141029654339317467, 13.35000000000000142, -3.000000000000000000 ) ) ;
#482 = EDGE_CURVE ( 'NONE', #500, #121, #424, .T. ) ;
#483 = FILL_AREA_STYLE_COLOUR ( '', #129 ) ;
#484 = CARTESIAN_POINT ( 'NONE',  ( 60.00000000000000000, 19.99999999999999645, 3.000000000000000000 ) ) ;
#485 = CARTESIAN_POINT ( 'NONE',  ( 0.000000000000000000, 0.000000000000000000, 0.000000000000000000 ) ) ;
#486 = CARTESIAN_POINT ( 'NONE',  ( 36.50000000000000000, 15.00000000000000178, 3.000000000000000000 ) ) ;
#487 = CARTESIAN_POINT ( 'NONE',  ( 31.60513234961999984, 16.65000000000000213, -3.000000000000000000 ) ) ;
#488 = EDGE_CURVE ( 'NONE', #418, #47, #332, .T. ) ;
#489 = CIRCLE ( 'NONE', #245, 10.50000000000000178 ) ;
#490 = CARTESIAN_POINT ( 'NONE',  ( 5.141029654339317467, 16.65000000000000213, 0.000000000000000000 ) ) ;
#491 = DIRECTION ( 'NONE',  ( -0.000000000000000000, -0.000000000000000000, 1.000000000000000000 ) ) ;
#492 = DIRECTION ( 'NONE',  ( 1.000000000000000000, 0.000000000000000000, 0.000000000000000000 ) ) ;
#493 = CARTESIAN_POINT ( 'NONE',  ( 47.00000000000000000, 15.00000000000000000, 0.000000000000000000 ) ) ;
#494 = CARTESIAN_POINT ( 'NONE',  ( 60.00000000000000000, 0.000000000000000000, 3.000000000000000000 ) ) ;
#495 = ORIENTED_EDGE ( 'NONE', *, *, #459, .F. ) ;
#496 = VECTOR ( 'NONE', #196, 1000.000000000000000 ) ;
#497 = DIRECTION ( 'NONE',  ( -1.000000000000000000, -0.000000000000000000, -0.000000000000000000 ) ) ;
#498 = VECTOR ( 'NONE', #223, 1000.000000000000000 ) ;
#499 = EDGE_LOOP ( 'NONE', ( #448, #93, #345, #271 ) ) ;
#500 = VERTEX_POINT ( 'NONE', #82 ) ;
#501 = CARTESIAN_POINT ( 'NONE',  ( 49.99999999999999289, 19.99999999999999645, 3.000000000000000000 ) ) ;
#502 = VERTEX_POINT ( 'NONE', #44 ) ;
#503 = ADVANCED_FACE ( 'NONE', ( #399 ), #286, .F. ) ;
#504 = DIRECTION ( 'NONE',  ( -0.000000000000000000, -0.000000000000000000, 1.000000000000000000 ) ) ;
#505 = CLOSED_SHELL ( 'NONE', ( #167, #353, #343, #227, #518, #320, #395, #195, #100, #69, #275, #117, #246, #220, #527, #503 ) ) ;
#506 = VECTOR ( 'NONE', #492, 1000.000000000000000 ) ;
#507 = ORIENTED_EDGE ( 'NONE', *, *, #270, .F. ) ;
#508 = CARTESIAN_POINT ( 'NONE',  ( 0.000000000000000000, 16.65000000000000213, 0.000000000000000000 ) ) ;
#509 = ORIENTED_EDGE ( 'NONE', *, *, #417, .F. ) ;
#510 = DIRECTION ( 'NONE',  ( -1.000000000000000000, 0.000000000000000000, 0.000000000000000000 ) ) ;
#511 = EDGE_CURVE ( 'NONE', #502, #224, #248, .T. ) ;
#512 = ORIENTED_EDGE ( 'NONE', *, *, #446, .F. ) ;
#513 = LINE ( 'NONE', #98, #252 ) ;
#514 = AXIS2_PLACEMENT_3D ( 'NONE', #365, #405, #318 ) ;
#515 = CARTESIAN_POINT ( 'NONE',  ( 57.50000000000000000, 15.00000000000000000, 3.000000000000000000 ) ) ;
#516 = DIRECTION ( 'NONE',  ( 0.000000000000000000, -0.000000000000000000, -1.000000000000000000 ) ) ;
#517 = ORIENTED_EDGE ( 'NONE', *, *, #281, .T. ) ;
#518 = ADVANCED_FACE ( 'NONE', ( #409 ), #203, .F. ) ;
#519 = PLANE ( 'NONE',  #48 ) ;
#520 = PRODUCT_RELATED_PRODUCT_CATEGORY ( 'part', '', ( #197 ) ) ;
#521 = DIRECTION ( 'NONE',  ( -0.000000000000000000, -1.000000000000000000, -0.000000000000000000 ) ) ;
#522 = DIRECTION ( 'NONE',  ( -0.000000000000000000, 0.000000000000000000, 1.000000000000000000 ) ) ;
#523 =( GEOMETRIC_REPRESENTATION_CONTEXT ( 3 ) GLOBAL_UNCERTAINTY_ASSIGNED_CONTEXT ( ( #71 ) ) GLOBAL_UNIT_ASSIGNED_CONTEXT ( ( #326, #478, #242 ) ) REPRESENTATION_CONTEXT ( 'NONE', 'WORKASPACE' ) );
#524 = AXIS2_PLACEMENT_3D ( 'NONE', #198, #362, #290 ) ;
#525 = LINE ( 'NONE', #484, #414 ) ;
#526 = DIRECTION ( 'NONE',  ( -0.000000000000000000, -0.000000000000000000, 1.000000000000000000 ) ) ;
#527 = ADVANCED_FACE ( 'NONE', ( #241 ), #37, .F. ) ;
#528 = DIRECTION ( 'NONE',  ( 0.000000000000000000, 0.000000000000000000, -1.000000000000000000 ) ) ;
#529 = LINE ( 'NONE', #153, #496 ) ;
#530 = DIRECTION ( 'NONE',  ( 1.000000000000000000, 0.000000000000000000, 0.000000000000000000 ) ) ;
#531 = CARTESIAN_POINT ( 'NONE',  ( 5.141029654339317467, 13.35000000000000142, 0.000000000000000000 ) ) ;
#532 = EDGE_CURVE ( 'NONE', #224, #163, #160, .T. ) ;
#533 = DIRECTION ( 'NONE',  ( 0.000000000000000000, 0.000000000000000000, -1.000000000000000000 ) ) ;
ENDSEC;
END-ISO-10303-21;
